 http://www.imdb.com/title/tt1648179/


General
Complete name                  : Here.Comes.The.Boom.2012.HDTS.XViD.AC3.HQ.Hive-CM8.avi
Format                         : AVI
Format/Info                    : Audio Video Interleave
File size                      : 1.39 GiB
Duration                       : 1h 41mn
Overall bit rate               : 1 965 Kbps
Writing application            : Nandub v1.0rc2
Writing library                : Nandub build 1853/release

Video
ID                             : 0
Format                         : MPEG-4 Visual
Format profile                 : Advanced Simple@L5
Format settings, BVOP          : 2
Format settings, QPel          : Yes
Format settings, GMC           : No warppoints
Format settings, Matrix        : Default (H.263)
Muxing mode                    : Packed bitstream
Codec ID                       : XVID
Codec ID/Hint                  : XviD
Duration                       : 1h 41mn
Bit rate                       : 1 699 Kbps
Width                          : 720 pixels
Height                         : 320 pixels
Display aspect ratio           : 2.25:1
Frame rate                     : 25.000 fps
Color space                    : YUV
Chroma subsampling             : 4:2:0
Bit depth                      : 8 bits
Scan type                      : Progressive
Compression mode               : Lossy
Bits/(Pixel*Frame)             : 0.295
Stream size                    : 1.20 GiB (86%)
Writing library                : XviD 1.2.1 (UTC 2008-12-04)

Audio
ID                             : 1
Format                         : AC-3
Format/Info                    : Audio Coding 3
Mode extension                 : CM (complete main)
Format settings, Endianness    : Big
Codec ID                       : 2000
Duration                       : 1h 41mn
Bit rate mode                  : Constant
Bit rate                       : 256 Kbps
Channel(s)                     : 2 channels
Channel positions              : Front: L R
Sampling rate                  : 48.0 KHz
Bit depth                      : 16 bits
Compression mode               : Lossy
Delay relative to video        : 1ms
Stream size                    : 185 MiB (13%)
Alignment                      : Split accross interleaves
Interleave, duration           : 40 ms (1.00 video frame)
Interleave, preload duration   : 500 ms


Plot:
A high school biology teacher looks to become a successful mixed-martial arts fighter
in an effort to raise money to prevent extra-curricular activities from being axed
at his cash-strapped school.


Cast:
Kevin James      ...    Scott Voss
Salma Hayek      ...    Bella Flores
Henry Winkler    ...    Marty Streb
Greg Germann     ...    Principal Betcher
 
http://img812.imageshack.us/img812/967/hbhb.png 
http://img829.imageshack.us/img829/3299/hbhbhb.png 
http://img7.imageshack.us/img7/9826/hbhbhhbbhb.png 
http://img824.imageshack.us/img824/5207/hbhbhhbbhbhbhb.png